<?xml version="1.0" encoding="utf-8"?>
<!DOCTYPE svg PUBLIC "-//W3C//DTD SVG 1.1//EN" "http://www.w3.org/Graphics/SVG/1.1/DTD/svg11.dtd">
<svg xmlns="http://www.w3.org/2000/svg" xmlns:xlink="http://www.w3.org/1999/xlink" version="1.1" class="marks" width="353" height="582" viewBox="0 0 353 582"><rect width="353" height="582" fill="white"/><g fill="none" stroke-miterlimit="10" transform="translate(63,26)"><g class="mark-group role-frame root" role="graphics-object" aria-roledescription="group mark container"><g transform="translate(0,0)"><path class="background" aria-hidden="true" d="M0,0h0v0h0Z"/><g><g class="mark-group role-row-header row_header" role="graphics-object" aria-roledescription="group mark container"><g transform="translate(-1,0)"><path class="background" aria-hidden="true" d="M0,0h0v250h0Z"/><g><g class="mark-group role-axis" role="graphics-symbol" aria-roledescription="axis" aria-label="Y-axis titled 'Credibility' for a linear scale with values from 0.0 to 1.0"><g transform="translate(0.5,0.5)"><path class="background" aria-hidden="true" d="M0,0h0v0h0Z" pointer-events="none"/><g><g class="mark-rule role-axis-tick" pointer-events="none"><line transform="translate(0,250)" x2="-5" y2="0" stroke="#888" stroke-width="1" opacity="1"/><line transform="translate(0,200)" x2="-5" y2="0" stroke="#888" stroke-width="1" opacity="1"/><line transform="translate(0,150)" x2="-5" y2="0" stroke="#888" stroke-width="1" opacity="1"/><line transform="translate(0,100)" x2="-5" y2="0" stroke="#888" stroke-width="1" opacity="1"/><line transform="translate(0,50)" x2="-5" y2="0" stroke="#888" stroke-width="1" opacity="1"/><line transform="translate(0,0)" x2="-5" y2="0" stroke="#888" stroke-width="1" opacity="1"/></g><g class="mark-text role-axis-label" pointer-events="none"><text text-anchor="end" transform="translate(-7,253)" font-family="sans-serif" font-size="10px" fill="#000" opacity="1">0.0</text><text text-anchor="end" transform="translate(-7,203)" font-family="sans-serif" font-size="10px" fill="#000" opacity="1">0.2</text><text text-anchor="end" transform="translate(-7,153)" font-family="sans-serif" font-size="10px" fill="#000" opacity="1">0.4</text><text text-anchor="end" transform="translate(-7,103)" font-family="sans-serif" font-size="10px" fill="#000" opacity="1">0.6</text><text text-anchor="end" transform="translate(-7,52.999999999999986)" font-family="sans-serif" font-size="10px" fill="#000" opacity="1">0.8</text><text text-anchor="end" transform="translate(-7,3)" font-family="sans-serif" font-size="10px" fill="#000" opacity="1">1.0</text></g><g class="mark-rule role-axis-domain" pointer-events="none"><line transform="translate(0,250)" x2="0" y2="-250" stroke="#888" stroke-width="1" opacity="1"/></g><g class="mark-text role-axis-title" pointer-events="none"><text text-anchor="middle" transform="translate(-26,125) rotate(-90) translate(0,-2)" font-family="sans-serif" font-size="11px" font-weight="bold" fill="#000" opacity="1">Credibility</text></g></g><path class="foreground" aria-hidden="true" d="" pointer-events="none" display="none"/></g></g><g class="mark-group role-title"><g transform="translate(-57,125)"><path class="background" aria-hidden="true" d="M0,0h0v0h0Z" pointer-events="none"/><g><g class="mark-text role-title-text" role="graphics-symbol" aria-roledescription="title" aria-label="Title text 'a'" pointer-events="none"><text text-anchor="middle" transform="translate(0,0) rotate(-90) translate(0,8)" font-family="sans-serif" font-size="10px" fill="#000" opacity="1">a</text></g></g><path class="foreground" aria-hidden="true" d="" pointer-events="none" display="none"/></g></g></g><path class="foreground" aria-hidden="true" d="" display="none"/></g><g transform="translate(-1,272)"><path class="background" aria-hidden="true" d="M0,0h0v250h0Z"/><g><g class="mark-group role-axis" role="graphics-symbol" aria-roledescription="axis" aria-label="Y-axis titled 'Credibility' for a linear scale with values from 0.0 to 1.0"><g transform="translate(0.5,0.5)"><path class="background" aria-hidden="true" d="M0,0h0v0h0Z" pointer-events="none"/><g><g class="mark-rule role-axis-tick" pointer-events="none"><line transform="translate(0,250)" x2="-5" y2="0" stroke="#888" stroke-width="1" opacity="1"/><line transform="translate(0,200)" x2="-5" y2="0" stroke="#888" stroke-width="1" opacity="1"/><line transform="translate(0,150)" x2="-5" y2="0" stroke="#888" stroke-width="1" opacity="1"/><line transform="translate(0,100)" x2="-5" y2="0" stroke="#888" stroke-width="1" opacity="1"/><line transform="translate(0,50)" x2="-5" y2="0" stroke="#888" stroke-width="1" opacity="1"/><line transform="translate(0,0)" x2="-5" y2="0" stroke="#888" stroke-width="1" opacity="1"/></g><g class="mark-text role-axis-label" pointer-events="none"><text text-anchor="end" transform="translate(-7,253)" font-family="sans-serif" font-size="10px" fill="#000" opacity="1">0.0</text><text text-anchor="end" transform="translate(-7,203)" font-family="sans-serif" font-size="10px" fill="#000" opacity="1">0.2</text><text text-anchor="end" transform="translate(-7,153)" font-family="sans-serif" font-size="10px" fill="#000" opacity="1">0.4</text><text text-anchor="end" transform="translate(-7,103)" font-family="sans-serif" font-size="10px" fill="#000" opacity="1">0.6</text><text text-anchor="end" transform="translate(-7,52.999999999999986)" font-family="sans-serif" font-size="10px" fill="#000" opacity="1">0.8</text><text text-anchor="end" transform="translate(-7,3)" font-family="sans-serif" font-size="10px" fill="#000" opacity="1">1.0</text></g><g class="mark-rule role-axis-domain" pointer-events="none"><line transform="translate(0,250)" x2="0" y2="-250" stroke="#888" stroke-width="1" opacity="1"/></g><g class="mark-text role-axis-title" pointer-events="none"><text text-anchor="middle" transform="translate(-26,125) rotate(-90) translate(0,-2)" font-family="sans-serif" font-size="11px" font-weight="bold" fill="#000" opacity="1">Credibility</text></g></g><path class="foreground" aria-hidden="true" d="" pointer-events="none" display="none"/></g></g><g class="mark-group role-title"><g transform="translate(-57,125)"><path class="background" aria-hidden="true" d="M0,0h0v0h0Z" pointer-events="none"/><g><g class="mark-text role-title-text" role="graphics-symbol" aria-roledescription="title" aria-label="Title text 'b'" pointer-events="none"><text text-anchor="middle" transform="translate(0,0) rotate(-90) translate(0,8)" font-family="sans-serif" font-size="10px" fill="#000" opacity="1">b</text></g></g><path class="foreground" aria-hidden="true" d="" pointer-events="none" display="none"/></g></g></g><path class="foreground" aria-hidden="true" d="" display="none"/></g></g><g class="mark-group role-column-header column_header" role="graphics-object" aria-roledescription="group mark container"><g transform="translate(0,-1)"><path class="background" aria-hidden="true" d="M0,0h80v0h-80Z"/><g><g class="mark-group role-title"><g transform="translate(40,-20)"><path class="background" aria-hidden="true" d="M0,0h0v0h0Z" pointer-events="none"/><g><g class="mark-text role-title-text" role="graphics-symbol" aria-roledescription="title" aria-label="Title text '1'" pointer-events="none"><text text-anchor="middle" transform="translate(0,8)" font-family="sans-serif" font-size="10px" fill="#000" opacity="1">1</text></g></g><path class="foreground" aria-hidden="true" d="" pointer-events="none" display="none"/></g></g></g><path class="foreground" aria-hidden="true" d="" display="none"/></g><g transform="translate(102,-1)"><path class="background" aria-hidden="true" d="M0,0h80v0h-80Z"/><g><g class="mark-group role-title"><g transform="translate(40,-20)"><path class="background" aria-hidden="true" d="M0,0h0v0h0Z" pointer-events="none"/><g><g class="mark-text role-title-text" role="graphics-symbol" aria-roledescription="title" aria-label="Title text '2'" pointer-events="none"><text text-anchor="middle" transform="translate(0,8)" font-family="sans-serif" font-size="10px" fill="#000" opacity="1">2</text></g></g><path class="foreground" aria-hidden="true" d="" pointer-events="none" display="none"/></g></g></g><path class="foreground" aria-hidden="true" d="" display="none"/></g><g transform="translate(204,-1)"><path class="background" aria-hidden="true" d="M0,0h80v0h-80Z"/><g><g class="mark-group role-title"><g transform="translate(40,-20)"><path class="background" aria-hidden="true" d="M0,0h0v0h0Z" pointer-events="none"/><g><g class="mark-text role-title-text" role="graphics-symbol" aria-roledescription="title" aria-label="Title text '3'" pointer-events="none"><text text-anchor="middle" transform="translate(0,8)" font-family="sans-serif" font-size="10px" fill="#000" opacity="1">3</text></g></g><path class="foreground" aria-hidden="true" d="" pointer-events="none" display="none"/></g></g></g><path class="foreground" aria-hidden="true" d="" display="none"/></g></g><g class="mark-group role-column-footer column_footer" role="graphics-object" aria-roledescription="group mark container"><g transform="translate(0,523)"><path class="background" aria-hidden="true" d="M0,0h80v0h-80Z"/><g><g class="mark-group role-axis" role="graphics-symbol" aria-roledescription="axis" aria-label="X-axis titled 'Possibilities' for a discrete scale with 4 values: a, b, c, d"><g transform="translate(0.5,0.5)"><path class="background" aria-hidden="true" d="M0,0h0v0h0Z" pointer-events="none"/><g><g class="mark-rule role-axis-tick" pointer-events="none"><line transform="translate(10,0)" x2="0" y2="5" stroke="#888" stroke-width="1" opacity="1"/><line transform="translate(30,0)" x2="0" y2="5" stroke="#888" stroke-width="1" opacity="1"/><line transform="translate(50,0)" x2="0" y2="5" stroke="#888" stroke-width="1" opacity="1"/><line transform="translate(70,0)" x2="0" y2="5" stroke="#888" stroke-width="1" opacity="1"/></g><g class="mark-text role-axis-label" pointer-events="none"><text text-anchor="end" transform="translate(9.5,7) rotate(270) translate(0,3)" font-family="sans-serif" font-size="10px" fill="#000" opacity="1">a</text><text text-anchor="end" transform="translate(29.5,7) rotate(270) translate(0,3)" font-family="sans-serif" font-size="10px" fill="#000" opacity="1">b</text><text text-anchor="end" transform="translate(49.5,7) rotate(270) translate(0,3)" font-family="sans-serif" font-size="10px" fill="#000" opacity="1">c</text><text text-anchor="end" transform="translate(69.5,7) rotate(270) translate(0,3)" font-family="sans-serif" font-size="10px" fill="#000" opacity="1">d</text></g><g class="mark-rule role-axis-domain" pointer-events="none"><line transform="translate(0,0)" x2="80" y2="0" stroke="#888" stroke-width="1" opacity="1"/></g><g class="mark-text role-axis-title" pointer-events="none"><text text-anchor="middle" transform="translate(40,26)" font-family="sans-serif" font-size="11px" font-weight="bold" fill="#000" opacity="1">Possibilities</text></g></g><path class="foreground" aria-hidden="true" d="" pointer-events="none" display="none"/></g></g></g><path class="foreground" aria-hidden="true" d="" display="none"/></g><g transform="translate(102,523)"><path class="background" aria-hidden="true" d="M0,0h80v0h-80Z"/><g><g class="mark-group role-axis" role="graphics-symbol" aria-roledescription="axis" aria-label="X-axis titled 'Possibilities' for a discrete scale with 4 values: a, b, c, d"><g transform="translate(0.5,0.5)"><path class="background" aria-hidden="true" d="M0,0h0v0h0Z" pointer-events="none"/><g><g class="mark-rule role-axis-tick" pointer-events="none"><line transform="translate(10,0)" x2="0" y2="5" stroke="#888" stroke-width="1" opacity="1"/><line transform="translate(30,0)" x2="0" y2="5" stroke="#888" stroke-width="1" opacity="1"/><line transform="translate(50,0)" x2="0" y2="5" stroke="#888" stroke-width="1" opacity="1"/><line transform="translate(70,0)" x2="0" y2="5" stroke="#888" stroke-width="1" opacity="1"/></g><g class="mark-text role-axis-label" pointer-events="none"><text text-anchor="end" transform="translate(9.5,7) rotate(270) translate(0,3)" font-family="sans-serif" font-size="10px" fill="#000" opacity="1">a</text><text text-anchor="end" transform="translate(29.5,7) rotate(270) translate(0,3)" font-family="sans-serif" font-size="10px" fill="#000" opacity="1">b</text><text text-anchor="end" transform="translate(49.5,7) rotate(270) translate(0,3)" font-family="sans-serif" font-size="10px" fill="#000" opacity="1">c</text><text text-anchor="end" transform="translate(69.5,7) rotate(270) translate(0,3)" font-family="sans-serif" font-size="10px" fill="#000" opacity="1">d</text></g><g class="mark-rule role-axis-domain" pointer-events="none"><line transform="translate(0,0)" x2="80" y2="0" stroke="#888" stroke-width="1" opacity="1"/></g><g class="mark-text role-axis-title" pointer-events="none"><text text-anchor="middle" transform="translate(40,26)" font-family="sans-serif" font-size="11px" font-weight="bold" fill="#000" opacity="1">Possibilities</text></g></g><path class="foreground" aria-hidden="true" d="" pointer-events="none" display="none"/></g></g></g><path class="foreground" aria-hidden="true" d="" display="none"/></g><g transform="translate(204,523)"><path class="background" aria-hidden="true" d="M0,0h80v0h-80Z"/><g><g class="mark-group role-axis" role="graphics-symbol" aria-roledescription="axis" aria-label="X-axis titled 'Possibilities' for a discrete scale with 4 values: a, b, c, d"><g transform="translate(0.5,0.5)"><path class="background" aria-hidden="true" d="M0,0h0v0h0Z" pointer-events="none"/><g><g class="mark-rule role-axis-tick" pointer-events="none"><line transform="translate(10,0)" x2="0" y2="5" stroke="#888" stroke-width="1" opacity="1"/><line transform="translate(30,0)" x2="0" y2="5" stroke="#888" stroke-width="1" opacity="1"/><line transform="translate(50,0)" x2="0" y2="5" stroke="#888" stroke-width="1" opacity="1"/><line transform="translate(70,0)" x2="0" y2="5" stroke="#888" stroke-width="1" opacity="1"/></g><g class="mark-text role-axis-label" pointer-events="none"><text text-anchor="end" transform="translate(9.5,7) rotate(270) translate(0,3)" font-family="sans-serif" font-size="10px" fill="#000" opacity="1">a</text><text text-anchor="end" transform="translate(29.5,7) rotate(270) translate(0,3)" font-family="sans-serif" font-size="10px" fill="#000" opacity="1">b</text><text text-anchor="end" transform="translate(49.5,7) rotate(270) translate(0,3)" font-family="sans-serif" font-size="10px" fill="#000" opacity="1">c</text><text text-anchor="end" transform="translate(69.5,7) rotate(270) translate(0,3)" font-family="sans-serif" font-size="10px" fill="#000" opacity="1">d</text></g><g class="mark-rule role-axis-domain" pointer-events="none"><line transform="translate(0,0)" x2="80" y2="0" stroke="#888" stroke-width="1" opacity="1"/></g><g class="mark-text role-axis-title" pointer-events="none"><text text-anchor="middle" transform="translate(40,26)" font-family="sans-serif" font-size="11px" font-weight="bold" fill="#000" opacity="1">Possibilities</text></g></g><path class="foreground" aria-hidden="true" d="" pointer-events="none" display="none"/></g></g></g><path class="foreground" aria-hidden="true" d="" display="none"/></g></g><g class="mark-group role-scope cell" role="graphics-object" aria-roledescription="group mark container"><g transform="translate(0,0)"><path class="background" aria-hidden="true" d="M0.5,0.5h80v250h-80Z" stroke="#ddd"/><g><g class="mark-rect role-mark child_marks" role="graphics-object" aria-roledescription="rect mark container"><path aria-label="Possibilities: a; Credibility: 0.25" role="graphics-symbol" aria-roledescription="bar" d="M1,187.5h18v62.5h-18Z" fill="#89b8f5"/><path aria-label="Possibilities: b; Credibility: 0.25" role="graphics-symbol" aria-roledescription="bar" d="M21,187.5h18v62.5h-18Z" fill="#89b8f5"/><path aria-label="Possibilities: c; Credibility: 0.25" role="graphics-symbol" aria-roledescription="bar" d="M41,187.5h18v62.5h-18Z" fill="#89b8f5"/><path aria-label="Possibilities: d; Credibility: 0.25" role="graphics-symbol" aria-roledescription="bar" d="M61,187.5h18v62.5h-18Z" fill="#89b8f5"/></g></g><path class="foreground" aria-hidden="true" d="" display="none"/></g><g transform="translate(102,0)"><path class="background" aria-hidden="true" d="M0.5,0.5h80v250h-80Z" stroke="#ddd"/><g><g class="mark-rect role-mark child_marks" role="graphics-object" aria-roledescription="rect mark container"><path aria-label="Possibilities: a; Credibility: 0" role="graphics-symbol" aria-roledescription="bar" d="M1,250h18v0h-18Z" fill="#89b8f5"/><path aria-label="Possibilities: b; Credibility: 0.333333333333" role="graphics-symbol" aria-roledescription="bar" d="M21,166.66666666666669h18v83.33333333333331h-18Z" fill="#89b8f5"/><path aria-label="Possibilities: c; Credibility: 0.333333333333" role="graphics-symbol" aria-roledescription="bar" d="M41,166.66666666666669h18v83.33333333333331h-18Z" fill="#89b8f5"/><path aria-label="Possibilities: d; Credibility: 0.333333333333" role="graphics-symbol" aria-roledescription="bar" d="M61,166.66666666666669h18v83.33333333333331h-18Z" fill="#89b8f5"/></g></g><path class="foreground" aria-hidden="true" d="" display="none"/></g><g transform="translate(204,0)"><path class="background" aria-hidden="true" d="M0.5,0.5h80v250h-80Z" stroke="#ddd"/><g><g class="mark-rect role-mark child_marks" role="graphics-object" aria-roledescription="rect mark container"><path aria-label="Possibilities: a; Credibility: 0" role="graphics-symbol" aria-roledescription="bar" d="M1,250h18v0h-18Z" fill="#89b8f5"/><path aria-label="Possibilities: b; Credibility: 0.5" role="graphics-symbol" aria-roledescription="bar" d="M21,125h18v125h-18Z" fill="#89b8f5"/><path aria-label="Possibilities: c; Credibility: 0" role="graphics-symbol" aria-roledescription="bar" d="M41,250h18v0h-18Z" fill="#89b8f5"/><path aria-label="Possibilities: d; Credibility: 0.5" role="graphics-symbol" aria-roledescription="bar" d="M61,125h18v125h-18Z" fill="#89b8f5"/></g></g><path class="foreground" aria-hidden="true" d="" display="none"/></g><g transform="translate(0,272)"><path class="background" aria-hidden="true" d="M0.5,0.5h80v250h-80Z" stroke="#ddd"/><g><g class="mark-rect role-mark child_marks" role="graphics-object" aria-roledescription="rect mark container"><path aria-label="Possibilities: a; Credibility: 0" role="graphics-symbol" aria-roledescription="bar" d="M1,250h18v0h-18Z" fill="#89b8f5"/><path aria-label="Possibilities: b; Credibility: 0.333333333333" role="graphics-symbol" aria-roledescription="bar" d="M21,166.66666666666669h18v83.33333333333331h-18Z" fill="#89b8f5"/><path aria-label="Possibilities: c; Credibility: 0.333333333333" role="graphics-symbol" aria-roledescription="bar" d="M41,166.66666666666669h18v83.33333333333331h-18Z" fill="#89b8f5"/><path aria-label="Possibilities: d; Credibility: 0.333333333333" role="graphics-symbol" aria-roledescription="bar" d="M61,166.66666666666669h18v83.33333333333331h-18Z" fill="#89b8f5"/></g></g><path class="foreground" aria-hidden="true" d="" display="none"/></g><g transform="translate(102,272)"><path class="background" aria-hidden="true" d="M0.5,0.5h80v250h-80Z" stroke="#ddd"/><g><g class="mark-rect role-mark child_marks" role="graphics-object" aria-roledescription="rect mark container"><path aria-label="Possibilities: a; Credibility: 0" role="graphics-symbol" aria-roledescription="bar" d="M1,250h18v0h-18Z" fill="#89b8f5"/><path aria-label="Possibilities: b; Credibility: 0.5" role="graphics-symbol" aria-roledescription="bar" d="M21,125h18v125h-18Z" fill="#89b8f5"/><path aria-label="Possibilities: c; Credibility: 0" role="graphics-symbol" aria-roledescription="bar" d="M41,250h18v0h-18Z" fill="#89b8f5"/><path aria-label="Possibilities: d; Credibility: 0.5" role="graphics-symbol" aria-roledescription="bar" d="M61,125h18v125h-18Z" fill="#89b8f5"/></g></g><path class="foreground" aria-hidden="true" d="" display="none"/></g><g transform="translate(204,272)"><path class="background" aria-hidden="true" d="M0.5,0.5h80v250h-80Z" stroke="#ddd"/><g><g class="mark-rect role-mark child_marks" role="graphics-object" aria-roledescription="rect mark container"><path aria-label="Possibilities: a; Credibility: 0" role="graphics-symbol" aria-roledescription="bar" d="M1,250h18v0h-18Z" fill="#89b8f5"/><path aria-label="Possibilities: b; Credibility: 0" role="graphics-symbol" aria-roledescription="bar" d="M21,250h18v0h-18Z" fill="#89b8f5"/><path aria-label="Possibilities: c; Credibility: 0" role="graphics-symbol" aria-roledescription="bar" d="M41,250h18v0h-18Z" fill="#89b8f5"/><path aria-label="Possibilities: d; Credibility: 1" role="graphics-symbol" aria-roledescription="bar" d="M61,0h18v250h-18Z" fill="#89b8f5"/></g></g><path class="foreground" aria-hidden="true" d="" display="none"/></g></g></g><path class="foreground" aria-hidden="true" d="" display="none"/></g></g></g></svg>
